<svg width="2656" height="512" viewBox="0 0 2656 512" fill="none" xmlns="http://www.w3.org/2000/svg">
<path d="M436 160C442.6 160 448 154.6 448 148V108C448 101.4 442.6 96 436 96H416V48C416 21.5 394.5 0 368 0H48C21.5 0 0 21.5 0 48V464C0 490.5 21.5 512 48 512H368C394.5 512 416 490.5 416 464V416H436C442.6 416 448 410.6 448 404V364C448 357.4 442.6 352 436 352H416V288H436C442.6 288 448 282.6 448 276V236C448 229.4 442.6 224 436 224H416V160H436ZM368 464H48V48H368V464ZM208 256C243.3 256 272 227.3 272 192C272 156.7 243.3 128 208 128C172.7 128 144 156.7 144 192C144 227.3 172.7 256 208 256ZM118.4 384H297.6C310 384 320 375.4 320 364.8V345.6C320 313.8 289.9 288 252.8 288C242 288 234.1 296 208 296C181.1 296 174.6 288 163.2 288C126.1 288 96 313.8 96 345.6V364.8C96 375.4 106 384 118.4 384Z" fill="url(#paint0_linear)"/>
<path d="M666.626 97.0781L771.216 358.113L875.806 97.0781H930.518V417H888.33V292.415L892.285 157.942L787.256 417H754.956L650.146 158.602L654.321 292.415V417H612.134V97.0781H666.626ZM1020.3 417H979.648V179.256H1020.3V417ZM976.353 116.194C976.353 109.603 978.33 104.036 982.285 99.4951C986.387 94.9541 992.393 92.6836 1000.3 92.6836C1008.21 92.6836 1014.22 94.9541 1018.32 99.4951C1022.42 104.036 1024.47 109.603 1024.47 116.194C1024.47 122.786 1022.42 128.279 1018.32 132.674C1014.22 137.068 1008.21 139.266 1000.3 139.266C992.393 139.266 986.387 137.068 982.285 132.674C978.33 128.279 976.353 122.786 976.353 116.194ZM1101.51 179.256L1102.83 209.139C1120.99 186.287 1144.72 174.861 1174.02 174.861C1224.26 174.861 1249.6 203.206 1250.04 259.896V417H1209.39V259.676C1209.25 242.537 1205.29 229.866 1197.53 221.663C1189.91 213.46 1177.97 209.358 1161.71 209.358C1148.53 209.358 1136.96 212.874 1127 219.905C1117.04 226.937 1109.27 236.165 1103.71 247.591V417H1063.06V179.256H1101.51ZM1333.01 417H1292.36V179.256H1333.01V417ZM1289.07 116.194C1289.07 109.603 1291.04 104.036 1295 99.4951C1299.1 94.9541 1305.11 92.6836 1313.02 92.6836C1320.93 92.6836 1326.93 94.9541 1331.04 99.4951C1335.14 104.036 1337.19 109.603 1337.19 116.194C1337.19 122.786 1335.14 128.279 1331.04 132.674C1326.93 137.068 1320.93 139.266 1313.02 139.266C1305.11 139.266 1299.1 137.068 1295 132.674C1291.04 128.279 1289.07 122.786 1289.07 116.194ZM1430.92 121.688V179.256H1475.31V210.677H1430.92V358.113C1430.92 367.635 1432.9 374.812 1436.86 379.646C1440.81 384.334 1447.55 386.678 1457.07 386.678C1461.76 386.678 1468.2 385.799 1476.41 384.041V417C1465.71 419.93 1455.31 421.395 1445.21 421.395C1427.04 421.395 1413.34 415.901 1404.12 404.915C1394.89 393.929 1390.27 378.328 1390.27 358.113V210.677H1346.99V179.256H1390.27V121.688H1430.92ZM1647.27 417C1644.92 412.312 1643.02 403.963 1641.55 391.951C1622.66 411.58 1600.1 421.395 1573.88 421.395C1550.44 421.395 1531.18 414.803 1516.09 401.619C1501.15 388.289 1493.68 371.443 1493.68 351.082C1493.68 326.326 1503.05 307.137 1521.8 293.514C1540.7 279.744 1567.21 272.859 1601.34 272.859H1640.89V254.183C1640.89 239.974 1636.65 228.694 1628.15 220.345C1619.65 211.849 1607.13 207.601 1590.58 207.601C1576.07 207.601 1563.92 211.263 1554.1 218.587C1544.29 225.911 1539.38 234.773 1539.38 245.174H1498.51C1498.51 233.309 1502.69 221.883 1511.04 210.896C1519.53 199.764 1530.96 190.975 1545.31 184.529C1559.81 178.084 1575.71 174.861 1592.99 174.861C1620.39 174.861 1641.85 181.746 1657.37 195.516C1672.9 209.139 1680.96 227.962 1681.54 251.985V361.409C1681.54 383.235 1684.33 400.594 1689.89 413.484V417H1647.27ZM1579.81 386.019C1592.55 386.019 1604.64 382.723 1616.06 376.131C1627.49 369.539 1635.77 360.97 1640.89 350.423V301.644H1609.03C1559.23 301.644 1534.33 316.219 1534.33 345.369C1534.33 358.113 1538.57 368.074 1547.07 375.252C1555.57 382.43 1566.48 386.019 1579.81 386.019ZM1818.12 388.216C1832.63 388.216 1845.3 383.821 1856.14 375.032C1866.98 366.243 1872.98 355.257 1874.16 342.073H1912.61C1911.88 355.696 1907.19 368.66 1898.54 380.965C1889.9 393.27 1878.33 403.084 1863.83 410.408C1849.47 417.732 1834.24 421.395 1818.12 421.395C1785.75 421.395 1759.97 410.628 1740.78 389.095C1721.74 367.415 1712.22 337.825 1712.22 300.325V293.514C1712.22 270.369 1716.46 249.788 1724.96 231.771C1733.46 213.753 1745.62 199.764 1761.44 189.803C1777.4 179.842 1796.23 174.861 1817.91 174.861C1844.57 174.861 1866.68 182.845 1884.26 198.812C1901.99 214.778 1911.44 235.506 1912.61 260.994H1874.16C1872.98 245.613 1867.12 233.016 1856.58 223.201C1846.18 213.24 1833.29 208.26 1817.91 208.26C1797.25 208.26 1781.21 215.73 1769.79 230.672C1758.51 245.467 1752.87 266.927 1752.87 295.052V302.742C1752.87 330.135 1758.51 351.229 1769.79 366.023C1781.06 380.818 1797.18 388.216 1818.12 388.216ZM1990.96 121.688V179.256H2035.35V210.677H1990.96V358.113C1990.96 367.635 1992.94 374.812 1996.89 379.646C2000.85 384.334 2007.59 386.678 2017.11 386.678C2021.8 386.678 2028.24 385.799 2036.45 384.041V417C2025.75 419.93 2015.35 421.395 2005.24 421.395C1987.08 421.395 1973.38 415.901 1964.16 404.915C1954.93 393.929 1950.31 378.328 1950.31 358.113V210.677H1907.03V179.256H1950.31V121.688H1990.96ZM2198.96 353.938C2198.96 342.952 2194.78 334.456 2186.43 328.45C2178.23 322.298 2163.8 317.024 2143.14 312.63C2122.64 308.235 2106.3 302.962 2094.15 296.81C2082.13 290.657 2073.2 283.333 2067.34 274.837C2061.63 266.341 2058.77 256.233 2058.77 244.515C2058.77 225.032 2066.97 208.553 2083.38 195.076C2099.93 181.6 2121.03 174.861 2146.66 174.861C2173.61 174.861 2195.44 181.819 2212.14 195.735C2228.98 209.651 2237.41 227.449 2237.41 249.129H2196.54C2196.54 237.996 2191.78 228.401 2182.26 220.345C2172.88 212.288 2161.02 208.26 2146.66 208.26C2131.87 208.26 2120.29 211.482 2111.94 217.928C2103.59 224.373 2099.42 232.796 2099.42 243.196C2099.42 253.011 2103.3 260.408 2111.06 265.389C2118.83 270.369 2132.82 275.13 2153.03 279.671C2173.39 284.212 2189.87 289.632 2202.47 295.931C2215.07 302.229 2224.37 309.847 2230.38 318.782C2236.53 327.571 2239.6 338.338 2239.6 351.082C2239.6 372.322 2231.11 389.388 2214.12 402.278C2197.12 415.022 2175.08 421.395 2147.98 421.395C2128.94 421.395 2112.09 418.025 2097.44 411.287C2082.79 404.549 2071.29 395.174 2062.94 383.162C2054.74 371.004 2050.64 357.894 2050.64 343.831H2091.29C2092.02 357.454 2097.44 368.294 2107.55 376.351C2117.8 384.261 2131.28 388.216 2147.98 388.216C2163.36 388.216 2175.66 385.14 2184.89 378.987C2194.27 372.688 2198.96 364.339 2198.96 353.938Z" fill="#0066FF"/>
<defs>
<linearGradient id="paint0_linear" x1="224" y1="0" x2="224" y2="512" gradientUnits="userSpaceOnUse">
<stop offset="0.9998" stop-color="#0038FF"/>
<stop offset="0.9999" stop-color="#0038FF" stop-opacity="0.0920245"/>
<stop offset="1" stop-color="#0038FF" stop-opacity="0"/>
</linearGradient>
</defs>
</svg>
